<svg viewBox="0 0 32 32" xmlns="http://www.w3.org/2000/svg">
  <rect width="32" height="32" rx="7" fill="#7e8a4f"/>
  <path d="M16 4c-5.5 0-10 4-10 9.5 0 3 1.4 5.6 3.6 7.3v3.2c0 1.1.9 2 2 2H12v-2.5h1.5V26h2v-2.5h1V26h2v-2.5h1.5V26h.4c1.1 0 2-.9 2-2v-3.2c2.2-1.7 3.6-4.3 3.6-7.3C26 8 21.5 4 16 4z" fill="rgba(255,255,255,0.16)" stroke="#ffffff" stroke-width="1.6" stroke-linejoin="round"/>
  <ellipse cx="11.8" cy="14.2" rx="2.4" ry="2.6" fill="#ffffff"/>
  <ellipse cx="20.2" cy="14.2" rx="2.4" ry="2.6" fill="#ffffff"/>
  <path d="M16 17.4 L14.6 19.6 L17.4 19.6 Z" fill="#ffffff" opacity="0.85"/>
  <path d="M13.5 22 L13.5 23.4 M16 22 L16 23.4 M18.5 22 L18.5 23.4" stroke="#ffffff" stroke-width="1" stroke-linecap="round" opacity="0.75"/>
</svg>
